<?xml version="1.0" standalone="no"?>
<!DOCTYPE svg PUBLIC "-//W3C//DTD SVG 20010904//EN"
 "http://www.w3.org/TR/2001/REC-SVG-20010904/DTD/svg10.dtd">
<svg version="1.0" xmlns="http://www.w3.org/2000/svg"
 width="452.000000pt" height="552.000000pt" viewBox="0 0 452.000000 552.000000"
 preserveAspectRatio="xMidYMid meet">

<g transform="translate(0.000000,552.000000) scale(0.100000,-0.100000)"
fill="#000000" stroke="none">
<path d="M1965 5321 c-3 -6 -2 -44 4 -84 5 -39 17 -135 26 -212 9 -77 27 -225
40 -330 14 -104 34 -264 45 -355 44 -348 41 -333 59 -314 6 5 4 53 -5 119 -8
61 -21 168 -29 238 -9 70 -22 178 -30 240 -8 62 -22 171 -30 242 -31 264 -57
450 -65 458 -4 5 -11 4 -15 -2z"/>
<path d="M2953 4803 c-158 -219 -219 -303 -406 -558 -120 -164 -173 -243 -166
-250 14 -14 17 -9 403 525 53 74 102 142 109 150 60 74 177 243 177 255 0 33
-22 10 -117 -122z"/>
<path d="M2431 4727 c-5 -18 -22 -77 -37 -132 -38 -142 -78 -288 -102 -372
-13 -47 -17 -75 -10 -79 5 -3 13 -2 17 2 4 5 32 97 61 204 29 107 65 241 81
297 22 81 25 103 14 107 -9 3 -17 -7 -24 -27z"/>
<path d="M1606 4572 c-2 -4 27 -64 66 -133 38 -68 80 -142 92 -164 70 -123
122 -214 143 -247 23 -37 43 -49 43 -27 0 10 -151 283 -204 369 -12 19 -44 74
-71 123 -47 84 -58 97 -69 79z"/>
<path d="M966 4441 c-3 -5 27 -28 67 -51 39 -24 88 -53 107 -65 19 -12 114
-69 210 -125 96 -57 234 -138 306 -181 153 -92 164 -97 164 -76 0 9 -65 53
-157 108 -87 51 -220 130 -296 176 -77 45 -140 83 -142 83 -2 0 -56 32 -121
70 -122 73 -129 76 -138 61z"/>
<path d="M3002 4187 c-229 -109 -382 -186 -382 -195 0 -19 16 -13 199 75 86
41 219 105 296 141 276 132 285 137 277 149 -5 7 -127 -46 -390 -170z"/>
<path d="M3055 3975 c-93 -19 -213 -43 -265 -54 -101 -22 -362 -73 -494 -96
-43 -8 -83 -21 -90 -29 -11 -16 -41 -11 -406 64 -250 51 -611 120 -629 120
-22 0 -29 -26 -55 -196 -74 -483 -102 -833 -92 -1134 11 -355 61 -544 170
-651 l45 -45 -34 -174 c-41 -214 -93 -483 -140 -735 -57 -302 -93 -476 -98
-481 -3 -3 -58 0 -123 7 -119 12 -229 8 -296 -11 -40 -11 -98 -60 -98 -82 0
-16 -4 -15 620 -138 250 -50 463 -93 473 -96 14 -4 17 1 17 30 0 79 -135 168
-335 222 -55 15 -103 30 -107 33 -7 6 11 105 132 741 21 113 51 268 65 345 49
260 57 302 64 312 3 5 27 17 52 26 128 48 291 277 411 577 122 305 236 687
318 1065 20 94 41 170 45 170 5 0 24 -67 41 -150 103 -471 266 -981 401 -1249
97 -192 225 -345 324 -385 l56 -23 21 -102 c11 -55 39 -200 62 -321 56 -300
115 -610 150 -791 37 -189 37 -192 3 -199 -16 -4 -75 -21 -133 -39 -174 -55
-290 -138 -290 -207 0 -28 2 -30 28 -25 384 74 1061 209 1074 214 15 6 16 10
5 32 -33 65 -174 97 -354 79 -59 -6 -119 -12 -133 -12 -22 -2 -26 3 -37 58
-15 72 -88 455 -138 720 -19 105 -42 222 -50 260 -8 39 -24 120 -34 180 -11
61 -23 125 -27 142 -6 29 -2 37 37 75 136 134 191 440 168 943 -11 239 -49
610 -84 810 -7 44 -19 115 -26 158 -9 60 -15 77 -28 76 -9 0 -92 -16 -186 -34z
m170 -37 c21 -87 72 -476 97 -733 20 -214 18 -693 -5 -823 -31 -178 -88 -300
-166 -352 -52 -35 -130 -34 -191 2 -204 119 -422 598 -613 1348 -73 286 -92
381 -76 391 7 4 56 16 109 25 52 10 257 50 455 90 198 40 366 73 372 73 7 1
15 -9 18 -21z m-1888 -32 c65 -13 271 -54 458 -91 187 -37 343 -70 347 -74 4
-3 3 -24 -2 -46 -106 -453 -151 -617 -230 -855 -135 -403 -265 -658 -400 -784
-60 -56 -103 -76 -165 -76 -57 0 -91 17 -139 71 -97 107 -139 314 -140 689 0
304 31 646 96 1058 18 114 23 132 39 132 10 0 72 -11 136 -24z m2511 -3365
c12 -6 22 -15 22 -19 0 -5 -741 -156 -932 -190 -77 -13 19 64 134 108 99 38
286 85 403 100 50 6 97 13 105 15 34 9 247 -3 268 -14z m-2778 -50 c193 -44
320 -91 392 -144 66 -49 25 -49 -192 -2 -41 8 -113 22 -160 31 -46 8 -125 23
-175 34 -49 10 -128 26 -175 35 -230 43 -252 52 -196 76 11 5 100 7 196 5 150
-4 194 -9 310 -35z"/>
<path d="M3076 3824 c-21 -20 -20 -30 4 -54 24 -24 48 -17 57 18 4 18 1 29
-12 39 -24 17 -30 16 -49 -3z"/>
<path d="M2647 3383 c-12 -12 -7 -50 8 -63 8 -6 23 -9 34 -5 25 8 36 41 21 60
-13 15 -51 20 -63 8z m46 -20 c9 -9 -13 -34 -24 -27 -14 8 -11 34 4 34 8 0 17
-3 20 -7z"/>
<path d="M2814 3316 c-10 -40 4 -66 35 -66 32 0 51 16 51 45 0 29 -19 45 -52
45 -21 0 -29 -6 -34 -24z m66 -21 c0 -20 -5 -25 -24 -25 -13 0 -26 6 -29 13
-7 22 4 37 29 37 19 0 24 -5 24 -25z"/>
<path d="M2625 3225 c-14 -13 -25 -35 -25 -48 0 -30 39 -67 72 -67 56 0 84 85
39 122 -31 25 -57 23 -86 -7z m85 -16 c25 -45 -12 -89 -60 -74 -48 15 -31 95
20 95 19 0 33 -7 40 -21z"/>
<path d="M2947 2663 c-14 -13 -6 -53 12 -63 27 -14 28 -13 47 15 13 20 14 28
4 40 -13 15 -51 20 -63 8z m48 -24 c0 -7 -8 -15 -17 -17 -18 -3 -25 18 -11 32
10 10 28 1 28 -15z"/>
<path d="M3130 2500 c-43 -43 -11 -120 49 -120 32 0 71 39 71 70 0 10 -9 29
-21 44 -25 32 -70 35 -99 6z m95 -34 c12 -35 -3 -60 -39 -64 -35 -4 -56 14
-56 49 0 59 74 71 95 15z"/>
<path d="M2868 2469 c-21 -12 -24 -59 -6 -77 7 -7 21 -12 33 -12 43 0 61 53
29 84 -18 18 -32 20 -56 5z m50 -26 c5 -10 7 -24 5 -30 -6 -18 -42 -16 -49 2
-15 38 26 63 44 28z"/>
<path d="M1272 3778 c-32 -32 8 -80 48 -58 34 18 19 70 -20 70 -9 0 -21 -5
-28 -12z m44 -19 c3 -6 2 -15 -2 -19 -12 -12 -38 5 -30 19 9 14 23 14 32 0z"/>
<path d="M1392 3628 c-32 -32 5 -92 49 -81 29 8 44 45 30 72 -13 23 -59 29
-79 9z m61 -20 c7 -21 -4 -38 -23 -38 -23 0 -34 16 -26 35 7 18 43 20 49 3z"/>
<path d="M1827 3294 c-12 -12 -8 -51 8 -64 8 -6 23 -9 35 -5 17 5 20 13 18 38
-2 26 -8 33 -28 35 -14 2 -29 0 -33 -4z m45 -46 c-17 -17 -47 9 -30 29 10 12
13 12 27 -1 11 -12 12 -19 3 -28z"/>
<path d="M1687 3202 c-21 -23 -22 -66 -1 -86 36 -37 104 -7 104 46 0 51 -69
78 -103 40z m67 -8 c23 -9 20 -57 -4 -72 -38 -23 -81 19 -60 59 11 19 35 24
64 13z"/>
<path d="M1310 2566 c-6 -8 -10 -25 -8 -38 2 -18 9 -23 33 -23 24 0 31 5 33
23 4 25 -13 52 -33 52 -7 0 -18 -7 -25 -14z m46 -17 c9 -15 -11 -33 -30 -26
-9 4 -13 13 -10 22 7 17 30 20 40 4z"/>
<path d="M1477 2432 c-23 -25 -21 -48 4 -65 26 -19 58 -11 71 18 23 51 -38 88
-75 47z"/>
<path d="M1350 2315 c-10 -12 -10 -21 -2 -40 7 -14 16 -25 22 -25 23 0 50 21
50 38 0 39 -46 56 -70 27z"/>
<path d="M2165 3428 c-8 -22 -44 -711 -38 -721 17 -27 26 41 43 324 23 363 24
409 10 409 -6 0 -13 -6 -15 -12z"/>
<path d="M2260 3178 c1 -7 12 -65 26 -128 13 -63 36 -173 50 -245 27 -132 38
-162 50 -131 10 27 -97 516 -113 516 -7 0 -13 -6 -13 -12z"/>
</g>
</svg>
